HIERARCHY
ROOT Hips
{
 OFFSET 0.000000 0.000000 0.000000
 CHANNELS 6 Xposition Yposition Zposition Yrotation Xrotation Zrotation
 JOINT Chest
 {
  OFFSET 0.000000 9.581000 -0.001100
  CHANNELS 3 Yrotation Xrotation Zrotation
  JOINT Chest2
  {
   OFFSET 0.000000 9.561100 0.002200
   CHANNELS 3 Yrotation Xrotation Zrotation
   JOINT Chest3
   {
    OFFSET 0.000000 9.521100 0.000000
    CHANNELS 3 Yrotation Xrotation Zrotation
    JOINT Chest4
    {
     OFFSET 0.000000 9.511400 0.000000
     CHANNELS 3 Yrotation Xrotation Zrotation
     JOINT Neck
     {
      OFFSET 0.000000 14.375100 0.000000
      CHANNELS 3 Yrotation Xrotation Zrotation
      JOINT Head
      {
       OFFSET 0.000000 8.901200 0.004600
       CHANNELS 3 Yrotation Xrotation Zrotation
       End Site
       {
        OFFSET 0.000000 16.962200 0.002400
       }
      }
     }
     JOINT RightCollar
     {
      OFFSET -2.920100 9.518800 0.000000
      CHANNELS 3 Yrotation Xrotation Zrotation
      JOINT RightShoulder
      {
       OFFSET -13.664500 0.000000 0.000000
       CHANNELS 3 Yrotation Xrotation Zrotation
       JOINT RightElbow
       {
        OFFSET 0.000000 -29.999200 0.000000
        CHANNELS 3 Yrotation Xrotation Zrotation
        JOINT RightWrist
        {
         OFFSET 0.000000 -24.253600 0.000000
         CHANNELS 3 Yrotation Xrotation Zrotation
         End Site
         {
          OFFSET 0.000000 -17.918900 0.000000
         }
        }
       }
      }
     }
     JOINT LeftCollar
     {
      OFFSET 2.920100 9.518800 0.000000
      CHANNELS 3 Yrotation Xrotation Zrotation
      JOINT LeftShoulder
      {
       OFFSET 13.664500 0.000000 0.000000
       CHANNELS 3 Yrotation Xrotation Zrotation
       JOINT LeftElbow
       {
        OFFSET 0.000000 -29.999200 0.000000
        CHANNELS 3 Yrotation Xrotation Zrotation
        JOINT LeftWrist
        {
         OFFSET 0.000000 -24.253600 0.000000
         CHANNELS 3 Yrotation Xrotation Zrotation
         End Site
         {
          OFFSET 0.000000 -17.918900 0.000000
         }
        }
       }
      }
     }
    }
   }
  }
 }
 JOINT RightHip
 {
  OFFSET -7.797300 0.005300 0.000500
  CHANNELS 3 Yrotation Xrotation Zrotation
  JOINT RightKnee
  {
   OFFSET 0.000000 -40.663400 -0.000500
   CHANNELS 3 Yrotation Xrotation Zrotation
   JOINT RightAnkle
   {
    OFFSET 0.000000 -39.523700 -0.000900
    CHANNELS 3 Yrotation Xrotation Zrotation
    JOINT RightToe
    {
     OFFSET 0.000000 -6.418000 14.485300
     CHANNELS 3 Yrotation Xrotation Zrotation
     End Site
     {
      OFFSET 0.000000 -1.465200 6.326400
     }
    }
   }
  }
 }
 JOINT LeftHip
 {
  OFFSET 7.797300 0.005300 0.000500
  CHANNELS 3 Yrotation Xrotation Zrotation
  JOINT LeftKnee
  {
   OFFSET 0.000000 -40.663400 -0.000500
   CHANNELS 3 Yrotation Xrotation Zrotation
   JOINT LeftAnkle
   {
    OFFSET 0.000000 -39.523700 -0.000900
    CHANNELS 3 Yrotation Xrotation Zrotation
    JOINT LeftToe
    {
     OFFSET 0.000000 -6.418000 14.485300
     CHANNELS 3 Yrotation Xrotation Zrotation
     End Site
     {
      OFFSET 0.000000 -1.465200 6.326400
     }
    }
   }
  }
 }
}
MOTION
Frames: 15
Frame Time: 0.008333
-22.571324 126.460687 61.080448 -179.549996 -29.333674 -2.486583 -0.859908 21.075819 0.572215 -0.124937 2.760439 0.099852 -0.201690 4.507770 0.160111 -0.748119 17.988452 0.557327 2.322521 16.963429 -2.548795 3.056109 -7.936112 -3.232486 -5.992058 -2.530230 1.392761 -6.706186 -6.934643 -1.961952 -83.283871 -36.121434 95.580229 -18.357498 1.946528 -25.102663 -5.830580 -1.583039 0.651620 8.440657 -9.722987 4.161440 64.475441 -35.660861 -84.673555 17.479468 -12.965540 40.093839 -9.088152 -49.468731 2.676170 -161.809132 74.084806 -155.982055 10.330951 -22.329034 -8.644885 0.002293 -0.022657 0.001016 -9.953022 -52.480235 -6.921597 33.350174 62.049689 26.838369 -4.516905 41.528437 -5.027987 0.011775 0.054544 0.005221
-22.573716 126.462923 61.084902 -179.541506 -29.386172 -2.473323 -0.853063 21.043015 0.554429 -0.123986 2.749458 0.099280 -0.200105 4.490691 0.159201 -0.743804 17.959523 0.555615 2.306832 17.082017 -2.537827 3.047710 -7.848320 -3.243574 -6.017774 -2.504121 1.380177 -6.720017 -6.889067 -2.020726 -83.171853 -36.664353 95.816575 -18.093953 2.216435 -25.052584 -5.816419 -1.567646 0.663649 8.387512 -9.687409 4.290630 64.296574 -35.993892 -84.696636 17.412921 -12.775063 39.927969 -9.072196 -49.422546 2.652546 -161.743651 74.081476 -155.939534 10.323202 -22.330882 -8.629518 0.005883 -0.019660 0.002606 -9.972191 -52.474987 -6.907493 33.336726 62.013415 26.851359 -4.705490 41.832624 -5.261926 0.014183 0.074117 0.006289
-22.565325 126.462141 61.095944 -179.505885 -29.392810 -2.538041 -0.845554 20.969426 0.608759 -0.123039 2.738959 0.098731 -0.198659 4.474467 0.158347 -0.739731 17.931782 0.553976 2.304080 17.113004 -2.555228 3.025450 -7.691422 -3.219285 -6.037128 -2.484681 1.364801 -6.747905 -6.832684 -2.073036 -83.070466 -37.206275 96.068097 -17.824032 2.483841 -24.989806 -5.804322 -1.556021 0.674541 8.322724 -9.648129 4.423421 64.144661 -36.342791 -84.733467 17.347263 -12.579425 39.774518 -9.175446 -49.405359 2.750107 -161.648165 74.081284 -155.870227 10.325690 -22.339974 -8.619108 -0.000724 -0.008939 -0.000321 -10.148329 -52.577495 -6.714106 33.430934 62.049210 26.931758 -4.907965 42.192642 -5.480366 0.009752 0.021350 0.004322
-22.564418 126.462496 61.104801 -179.491291 -29.414931 -2.548044 -0.836560 20.912177 0.616044 -0.122372 2.729123 0.098341 -0.197706 4.459224 0.157729 -0.747654 17.969744 0.554999 2.306497 17.118834 -2.556517 3.018529 -7.588430 -3.226649 -6.038707 -2.534921 1.346486 -6.773405 -6.768501 -2.118833 -82.990177 -37.754226 96.333379 -17.556202 2.744227 -24.931319 -5.779087 -1.612801 0.684934 8.244748 -9.605077 4.554270 64.025255 -36.694268 -84.790761 17.284626 -12.373279 39.635619 -9.211493 -49.377275 2.781840 -161.544031 74.082169 -155.796002 10.322502 -22.348747 -8.612435 -0.000701 -0.002461 -0.000311 -10.182807 -52.633317 -6.671716 33.511345 62.037601 27.038301 -5.115298 42.490133 -5.696150 0.005437 0.014740 0.002409
-22.565012 126.467136 61.106491 -179.458871 -29.487006 -2.558240 -0.848881 20.926569 0.612721 -0.117646 2.701712 0.098566 -0.196949 4.445103 0.157501 -0.741137 17.912763 0.554111 2.299402 17.213029 -2.545275 3.008629 -7.522815 -3.215353 -6.050579 -2.493503 1.321831 -6.787949 -6.700670 -2.161366 -82.932571 -38.305210 96.608494 -17.289735 2.990786 -24.891167 -5.769660 -1.581318 0.690638 8.158056 -9.553720 4.682268 63.935809 -37.034905 -84.869094 17.220080 -12.153698 39.507112 -9.240693 -49.297270 2.788681 -161.437074 74.084073 -155.719761 10.321941 -22.354128 -8.608800 0.001233 -0.003008 0.000546 -10.190792 -52.617081 -6.683372 33.580534 62.005344 27.146192 -5.324015 42.759354 -5.914329 0.000059 0.012227 0.000026
-22.565363 126.470415 61.111153 -179.437252 -29.541772 -2.564079 -0.861997 20.962703 0.608211 -0.104383 2.638890 0.099407 -0.195921 4.432665 0.157266 -0.732873 17.859990 0.554004 2.292443 17.301520 -2.537031 2.997520 -7.464246 -3.202207 -6.058052 -2.461093 1.297175 -6.790865 -6.631709 -2.204921 -82.895478 -38.854262 96.887043 -17.021536 3.217823 -24.877393 -5.763588 -1.562446 0.694135 8.071050 -9.493886 4.803073 63.866153 -37.366193 -84.963667 17.159715 -11.924258 39.387978 -9.258751 -49.235272 2.798076 -161.331972 74.086222 -155.641170 10.321145 -22.362443 -8.606047 0.002430 -0.001730 0.001076 -10.198368 -52.610807 -6.688261 33.634444 61.973872 27.238702 -5.529825 43.001636 -6.136488 -0.003916 0.012390 -0.001735
-22.565651 126.473264 61.117098 -179.423864 -29.591629 -2.565499 -0.856447 20.939523 0.609517 -0.104451 2.632687 0.098846 -0.194608 4.422455 0.156851 -0.728679 17.842526 0.553619 2.290042 17.356275 -2.535203 3.000908 -7.404964 -3.202134 -6.055794 -2.468179 1.277106 -6.781787 -6.564167 -2.251067 -82.878023 -39.402558 97.163608 -16.761786 3.426288 -24.893820 -5.750710 -1.584397 0.696459 8.007611 -9.398484 4.867769 63.797096 -37.744610 -85.081794 17.110674 -11.696127 39.276890 -9.261160 -49.178307 2.801368 -161.240108 74.088447 -155.568967 10.316925 -22.374037 -8.603046 0.002914 0.000697 0.001291 -10.211128 -52.601821 -6.682179 33.652988 61.945676 27.289053 -5.724725 43.224941 -6.360606 -0.006629 0.012167 -0.002938
-22.567402 126.477337 61.121184 -179.421678 -29.658530 -2.551848 -0.844574 20.933432 0.599581 -0.104819 2.626654 0.099906 -0.193427 4.414484 0.156510 -0.729759 17.852878 0.552963 2.291065 17.385177 -2.538252 2.992761 -7.353988 -3.192396 -6.046033 -2.505839 1.261424 -6.761295 -6.502598 -2.303261 -82.882413 -39.948387 97.436112 -16.522761 3.626739 -24.939746 -5.731409 -1.636086 0.696992 7.917439 -9.350220 4.990835 63.749498 -38.031254 -85.185442 17.064236 -11.476975 39.174073 -9.232745 -49.109881 2.773470 -161.194198 74.089778 -155.538992 10.315725 -22.383606 -8.600389 0.000585 0.000780 0.000259 -10.190129 -52.557883 -6.703985 33.643702 61.932453 27.295537 -5.870428 43.388475 -6.540263 -0.019628 0.030845 -0.008701
-22.567701 126.480220 61.127700 -179.401442 -29.711609 -2.554799 -0.848514 20.913880 0.598006 -0.102733 2.621165 0.100976 -0.192489 4.408118 0.156017 -0.726680 17.841881 0.552090 2.280085 17.458049 -2.533824 2.998498 -7.320217 -3.203519 -6.040586 -2.522105 1.249855 -6.762141 -6.419303 -2.336570 -82.906920 -40.518466 97.747214 -16.307539 3.828237 -25.016476 -5.719058 -1.664490 0.696030 7.844709 -9.300921 5.098362 63.704128 -38.304918 -85.301450 17.012414 -11.268834 39.087383 -9.230734 -49.053488 2.759661 -161.163167 74.092848 -155.524983 10.312085 -22.391376 -8.594616 -0.003625 0.000805 -0.001606 -10.246269 -52.534531 -6.657792 33.608551 61.901330 27.264987 -6.061513 43.597278 -6.775236 -0.013551 0.019235 -0.006006
-22.566705 126.480935 61.138090 -179.387260 -29.740605 -2.561602 -0.842818 20.868000 0.607497 -0.103395 2.618221 0.098247 -0.191275 4.402807 0.155069 -0.717707 17.808723 0.549731 2.264794 17.551747 -2.523254 3.000561 -7.285813 -3.214283 -6.053989 -2.460567 1.246134 -6.705595 -6.444270 -2.414221 -82.945847 -41.043597 98.001801 -16.117841 4.028933 -25.118176 -5.713927 -1.665866 0.698153 7.797234 -9.238239 5.173371 63.662237 -38.587652 -85.440224 16.954344 -11.070661 39.020145 -9.225657 -49.020499 2.755640 -161.131143 74.096462 -155.495296 10.304973 -22.398546 -8.592229 -0.002449 0.004479 -0.001085 -10.323123 -52.524476 -6.572429 33.559058 61.871952 27.197309 -6.235665 43.782172 -6.986328 -0.004801 0.011679 -0.002128
-22.565624 126.481919 61.147731 -179.381387 -29.775692 -2.564595 -0.820370 20.773986 0.617677 -0.117377 2.689051 0.096434 -0.186202 4.379339 0.153092 -0.717518 17.822787 0.547727 2.264430 17.575754 -2.524981 2.994787 -7.232663 -3.214106 -6.046919 -2.521284 1.243392 -6.663014 -6.401163 -2.501351 -82.987989 -41.561800 98.249752 -15.947214 4.228353 -25.230432 -5.697469 -1.709839 0.705552 7.760853 -9.178979 5.237292 63.627679 -38.857613 -85.590698 16.894617 -10.886123 38.969558 -9.184213 -48.986778 2.737282 -161.095313 74.094416 -155.443925 10.290511 -22.401815 -8.581501 0.004258 0.006745 0.001887 -10.379999 -52.494914 -6.490607 33.510808 61.849831 27.113965 -6.372649 43.922531 -7.147311 0.000902 0.014820 0.000400
-22.566614 126.487745 61.148361 -179.367235 -29.871399 -2.560217 -0.818560 20.798142 0.607795 -0.127821 2.741406 0.097365 -0.181880 4.358285 0.151700 -0.719801 17.840966 0.547681 2.280525 17.501228 -2.551745 2.983857 -7.140785 -3.205424 -6.041333 -2.573720 1.240233 -6.629044 -6.399154 -2.568802 -83.032847 -42.077406 98.513243 -15.779675 4.429832 -25.345857 -5.667142 -1.793061 0.712220 7.732382 -9.123288 5.293516 63.599778 -39.114986 -85.752978 16.838731 -10.722248 38.933162 -9.134708 -48.897570 2.686099 -161.077520 74.093481 -155.421817 10.286087 -22.393078 -8.577024 0.006930 -0.000520 0.003071 -10.396383 -52.400578 -6.463416 33.489414 61.820119 27.053083 -6.486039 44.046871 -7.266924 0.001267 0.010685 0.000561
-22.567693 126.487167 61.159603 -179.365734 -29.891978 -2.549165 -0.803232 20.748303 0.600259 -0.132853 2.738401 0.096197 -0.171579 4.327530 0.149754 -0.707459 17.777968 0.539393 2.263791 17.609501 -2.531383 2.975059 -7.097142 -3.196686 -6.067572 -2.519302 1.239732 -6.606336 -6.360972 -2.635583 -83.072345 -42.570928 98.773651 -15.613806 4.630871 -25.467568 -5.664264 -1.723492 0.725993 7.710308 -9.071688 5.343205 63.577083 -39.364006 -85.925130 16.787512 -10.577632 38.906102 -9.087793 -48.888902 2.657184 -161.094862 74.099568 -155.452745 10.254513 -22.390106 -8.535050 -0.004622 0.003370 -0.002048 -10.391799 -52.381199 -6.460551 33.494979 61.788215 27.037627 -6.547519 44.124072 -7.324599 -0.009612 0.017633 -0.004260
-22.566784 126.489079 61.166121 -179.344863 -29.941619 -2.561282 -0.790210 20.710943 0.608072 -0.121358 2.692550 0.094438 -0.181557 4.354182 0.149828 -0.705590 17.757739 0.535349 2.251910 17.672577 -2.516234 2.964364 -7.055955 -3.184642 -6.088272 -2.504406 1.239822 -6.592040 -6.323967 -2.701017 -83.106617 -43.039400 99.032419 -15.460586 4.833605 -25.601219 -5.673000 -1.643133 0.736139 7.717272 -9.069140 5.380353 63.557717 -39.610094 -86.100166 16.738238 -10.443920 38.883538 -9.072646 -48.846243 2.639068 -161.110168 74.100433 -155.469143 10.242108 -22.380596 -8.517345 -0.006863 0.002208 -0.003041 -10.449317 -52.331406 -6.378437 33.449111 61.801531 26.939493 -6.592317 44.149228 -7.364622 0.008712 0.016776 0.003861
-22.568083 126.493783 61.167285 -179.296273 -30.024184 -2.576024 -0.814836 20.743229 0.599272 -0.110897 2.648896 0.091742 -0.186395 4.363118 0.149647 -0.703861 17.740409 0.532082 2.245334 17.707546 -2.502771 2.954300 -7.018325 -3.168888 -6.101275 -2.491515 1.240556 -6.584775 -6.304768 -2.762113 -83.143744 -43.475658 99.291862 -15.326938 5.049092 -25.743552 -5.649304 -1.651744 0.753394 7.706010 -8.998886 5.408099 63.542607 -39.852639 -86.274357 16.688977 -10.315840 38.863336 -9.077055 -48.766924 2.601631 -161.122668 74.101619 -155.489327 10.234691 -22.366710 -8.509150 -0.008005 -0.000147 -0.003547 -10.498767 -52.251832 -6.329877 33.439976 61.788819 26.854251 -6.645402 44.229241 -7.398262 0.009047 0.007763 0.004009
